<svg xmlns="http://www.w3.org/2000/svg" viewBox="0 0 700 632" role="img" aria-label="One decode step through one expert layer">
  <rect x="0" y="0" width="342" height="308" fill="none" stroke="currentColor" stroke-width="1.25"/>
  <circle cx="18" cy="18" r="9" fill="none" stroke="currentColor" stroke-width="1"/>
  <text x="18" y="22" font-family="ui-monospace, SF Mono, Cascadia Mono, Menlo, monospace" font-size="11" fill="currentColor" text-anchor="middle">1</text>
  <text x="34" y="22" font-family="ui-monospace, SF Mono, Cascadia Mono, Menlo, monospace" font-size="11" fill="currentColor" text-anchor="start">Route</text>
  <rect x="48" y="40" width="210" height="62" fill="none" stroke="var(--tone-gpu)" stroke-width="1.25"/>
  <text x="54" y="54" font-family="ui-monospace, SF Mono, Cascadia Mono, Menlo, monospace" font-size="11" fill="var(--tone-gpu)" text-anchor="start">GPU</text>
  <line x1="48" y1="60" x2="258" y2="60" stroke="var(--tone-gpu)" stroke-width="1.25"/>
  <line x1="128" y1="60" x2="128" y2="102" stroke="var(--tone-hot)" stroke-width="1.25"/>
  <line x1="190" y1="60" x2="190" y2="102" stroke="var(--tone-hot)" stroke-width="1.25"/>
  <text x="54" y="85" font-family="ui-monospace, SF Mono, Cascadia Mono, Menlo, monospace" font-size="11" fill="currentColor" text-anchor="start">slot cache</text>
  <text x="134" y="85" font-family="ui-monospace, SF Mono, Cascadia Mono, Menlo, monospace" font-size="11" fill="var(--tone-hot)" text-anchor="start">hot set</text>
  <text x="198" y="85" font-family="ui-monospace, SF Mono, Cascadia Mono, Menlo, monospace" font-size="11" fill="currentColor" text-anchor="start">KV</text>
  <rect x="272" y="118" width="56" height="40" fill="none" stroke="currentColor" stroke-width="1.25"/>
  <text x="278" y="134" font-family="ui-monospace, SF Mono, Cascadia Mono, Menlo, monospace" font-size="11" fill="currentColor" text-anchor="start">CPU</text>
  <text x="278" y="148" font-family="ui-monospace, SF Mono, Cascadia Mono, Menlo, monospace" font-size="11" fill="currentColor" text-anchor="start">exec</text>
  <rect x="48" y="118" width="210" height="40" fill="none" stroke="var(--tone-ram)" stroke-width="1.25"/>
  <text x="54" y="134" font-family="ui-monospace, SF Mono, Cascadia Mono, Menlo, monospace" font-size="11" fill="var(--tone-ram)" text-anchor="start">pinned banks</text>
  <text x="54" y="148" font-family="ui-monospace, SF Mono, Cascadia Mono, Menlo, monospace" font-size="11" fill="var(--tone-ram)" text-anchor="start">40 GB</text>
  <rect x="48" y="172" width="210" height="34" fill="none" stroke="var(--tone-cache)" stroke-width="1.25" stroke-dasharray="4 3"/>
  <text x="54" y="192" font-family="ui-monospace, SF Mono, Cascadia Mono, Menlo, monospace" font-size="11" fill="var(--tone-cache)" text-anchor="start">page cache</text>
  <rect x="48" y="220" width="210" height="40" fill="none" stroke="var(--tone-disk)" stroke-width="1.25"/>
  <line x1="170" y1="220" x2="170" y2="260" stroke="var(--tone-disk)" stroke-width="1.25"/>
  <text x="54" y="236" font-family="ui-monospace, SF Mono, Cascadia Mono, Menlo, monospace" font-size="11" fill="var(--tone-disk)" text-anchor="start">expert banks</text>
  <text x="54" y="250" font-family="ui-monospace, SF Mono, Cascadia Mono, Menlo, monospace" font-size="11" fill="var(--tone-disk)" text-anchor="start">63.5 GiB</text>
  <text x="176" y="236" font-family="ui-monospace, SF Mono, Cascadia Mono, Menlo, monospace" font-size="11" fill="var(--tone-disk)" text-anchor="start">table</text>
  <text x="176" y="250" font-family="ui-monospace, SF Mono, Cascadia Mono, Menlo, monospace" font-size="11" fill="var(--tone-disk)" text-anchor="start">27 GiB</text>
  <circle cx="26" cy="71" r="9" fill="none" stroke="var(--tone-gpu)" stroke-width="1" data-key="A" data-tone="gpu"/>
  <text x="26" y="75" font-family="ui-monospace, SF Mono, Cascadia Mono, Menlo, monospace" font-size="11" fill="var(--tone-gpu)" text-anchor="middle">A</text>
  <line x1="35.0" y1="71.0" x2="48" y2="71" stroke="currentColor" stroke-width="1"/>
  <circle cx="48" cy="71" r="2" fill="currentColor"/>
  <circle cx="26" cy="138" r="9" fill="none" stroke="var(--tone-ram)" stroke-width="1" data-key="B" data-tone="ram"/>
  <text x="26" y="142" font-family="ui-monospace, SF Mono, Cascadia Mono, Menlo, monospace" font-size="11" fill="var(--tone-ram)" text-anchor="middle">B</text>
  <line x1="35.0" y1="138.0" x2="48" y2="138" stroke="currentColor" stroke-width="1"/>
  <circle cx="48" cy="138" r="2" fill="currentColor"/>
  <circle cx="26" cy="189" r="9" fill="none" stroke="var(--tone-cache)" stroke-width="1" data-key="C" data-tone="cache"/>
  <text x="26" y="193" font-family="ui-monospace, SF Mono, Cascadia Mono, Menlo, monospace" font-size="11" fill="var(--tone-cache)" text-anchor="middle">C</text>
  <line x1="35.0" y1="189.0" x2="48" y2="189" stroke="currentColor" stroke-width="1"/>
  <circle cx="48" cy="189" r="2" fill="currentColor"/>
  <circle cx="26" cy="240" r="9" fill="none" stroke="var(--tone-disk)" stroke-width="1" data-key="D" data-tone="disk"/>
  <text x="26" y="244" font-family="ui-monospace, SF Mono, Cascadia Mono, Menlo, monospace" font-size="11" fill="var(--tone-disk)" text-anchor="middle">D</text>
  <line x1="35.0" y1="240.0" x2="48" y2="240" stroke="currentColor" stroke-width="1"/>
  <circle cx="48" cy="240" r="2" fill="currentColor"/>
  <circle cx="300" cy="174" r="9" fill="none" stroke="currentColor" stroke-width="1"/>
  <text x="300" y="178" font-family="ui-monospace, SF Mono, Cascadia Mono, Menlo, monospace" font-size="11" fill="currentColor" text-anchor="middle">E</text>
  <line x1="300.0" y1="165.0" x2="300" y2="158" stroke="currentColor" stroke-width="1"/>
  <circle cx="300" cy="158" r="2" fill="currentColor"/>
  <rect x="358" y="0" width="342" height="308" fill="none" stroke="currentColor" stroke-width="1.25"/>
  <circle cx="376" cy="18" r="9" fill="none" stroke="currentColor" stroke-width="1"/>
  <text x="376" y="22" font-family="ui-monospace, SF Mono, Cascadia Mono, Menlo, monospace" font-size="11" fill="currentColor" text-anchor="middle">2</text>
  <text x="392" y="22" font-family="ui-monospace, SF Mono, Cascadia Mono, Menlo, monospace" font-size="11" fill="currentColor" text-anchor="start">Sort by residency</text>
  <rect x="406" y="40" width="210" height="62" fill="none" stroke="var(--tone-gpu)" stroke-width="1.25"/>
  <text x="412" y="54" font-family="ui-monospace, SF Mono, Cascadia Mono, Menlo, monospace" font-size="11" fill="var(--tone-gpu)" text-anchor="start">GPU</text>
  <line x1="406" y1="60" x2="616" y2="60" stroke="var(--tone-gpu)" stroke-width="1.25"/>
  <line x1="486" y1="60" x2="486" y2="102" stroke="var(--tone-hot)" stroke-width="1.25"/>
  <line x1="548" y1="60" x2="548" y2="102" stroke="var(--tone-hot)" stroke-width="1.25"/>
  <text x="412" y="85" font-family="ui-monospace, SF Mono, Cascadia Mono, Menlo, monospace" font-size="11" fill="currentColor" text-anchor="start">slot cache</text>
  <text x="492" y="85" font-family="ui-monospace, SF Mono, Cascadia Mono, Menlo, monospace" font-size="11" fill="var(--tone-hot)" text-anchor="start">hot set</text>
  <text x="556" y="85" font-family="ui-monospace, SF Mono, Cascadia Mono, Menlo, monospace" font-size="11" fill="currentColor" text-anchor="start">KV</text>
  <rect x="630" y="118" width="56" height="40" fill="none" stroke="currentColor" stroke-width="1.25"/>
  <text x="636" y="134" font-family="ui-monospace, SF Mono, Cascadia Mono, Menlo, monospace" font-size="11" fill="currentColor" text-anchor="start">CPU</text>
  <text x="636" y="148" font-family="ui-monospace, SF Mono, Cascadia Mono, Menlo, monospace" font-size="11" fill="currentColor" text-anchor="start">exec</text>
  <rect x="406" y="118" width="210" height="40" fill="none" stroke="var(--tone-ram)" stroke-width="1.25"/>
  <text x="412" y="134" font-family="ui-monospace, SF Mono, Cascadia Mono, Menlo, monospace" font-size="11" fill="var(--tone-ram)" text-anchor="start">pinned banks</text>
  <text x="412" y="148" font-family="ui-monospace, SF Mono, Cascadia Mono, Menlo, monospace" font-size="11" fill="var(--tone-ram)" text-anchor="start">40 GB</text>
  <rect x="406" y="172" width="210" height="34" fill="none" stroke="var(--tone-cache)" stroke-width="1.25" stroke-dasharray="4 3"/>
  <text x="412" y="192" font-family="ui-monospace, SF Mono, Cascadia Mono, Menlo, monospace" font-size="11" fill="var(--tone-cache)" text-anchor="start">page cache</text>
  <rect x="406" y="220" width="210" height="40" fill="none" stroke="var(--tone-disk)" stroke-width="1.25"/>
  <line x1="528" y1="220" x2="528" y2="260" stroke="var(--tone-disk)" stroke-width="1.25"/>
  <text x="412" y="236" font-family="ui-monospace, SF Mono, Cascadia Mono, Menlo, monospace" font-size="11" fill="var(--tone-disk)" text-anchor="start">expert banks</text>
  <text x="412" y="250" font-family="ui-monospace, SF Mono, Cascadia Mono, Menlo, monospace" font-size="11" fill="var(--tone-disk)" text-anchor="start">63.5 GiB</text>
  <text x="534" y="236" font-family="ui-monospace, SF Mono, Cascadia Mono, Menlo, monospace" font-size="11" fill="var(--tone-disk)" text-anchor="start">table</text>
  <text x="534" y="250" font-family="ui-monospace, SF Mono, Cascadia Mono, Menlo, monospace" font-size="11" fill="var(--tone-disk)" text-anchor="start">27 GiB</text>
  <rect x="0" y="324" width="342" height="308" fill="none" stroke="currentColor" stroke-width="1.25"/>
  <circle cx="18" cy="342" r="9" fill="none" stroke="currentColor" stroke-width="1"/>
  <text x="18" y="346" font-family="ui-monospace, SF Mono, Cascadia Mono, Menlo, monospace" font-size="11" fill="currentColor" text-anchor="middle">3</text>
  <text x="34" y="346" font-family="ui-monospace, SF Mono, Cascadia Mono, Menlo, monospace" font-size="11" fill="currentColor" text-anchor="start">Move</text>
  <rect x="48" y="364" width="210" height="62" fill="none" stroke="var(--tone-gpu)" stroke-width="1.25"/>
  <text x="54" y="378" font-family="ui-monospace, SF Mono, Cascadia Mono, Menlo, monospace" font-size="11" fill="var(--tone-gpu)" text-anchor="start">GPU</text>
  <line x1="48" y1="384" x2="258" y2="384" stroke="var(--tone-gpu)" stroke-width="1.25"/>
  <line x1="128" y1="384" x2="128" y2="426" stroke="var(--tone-hot)" stroke-width="1.25"/>
  <line x1="190" y1="384" x2="190" y2="426" stroke="var(--tone-hot)" stroke-width="1.25"/>
  <text x="54" y="409" font-family="ui-monospace, SF Mono, Cascadia Mono, Menlo, monospace" font-size="11" fill="currentColor" text-anchor="start">slot cache</text>
  <text x="134" y="409" font-family="ui-monospace, SF Mono, Cascadia Mono, Menlo, monospace" font-size="11" fill="var(--tone-hot)" text-anchor="start">hot set</text>
  <text x="198" y="409" font-family="ui-monospace, SF Mono, Cascadia Mono, Menlo, monospace" font-size="11" fill="currentColor" text-anchor="start">KV</text>
  <rect x="272" y="442" width="56" height="40" fill="none" stroke="currentColor" stroke-width="1.25"/>
  <text x="278" y="458" font-family="ui-monospace, SF Mono, Cascadia Mono, Menlo, monospace" font-size="11" fill="currentColor" text-anchor="start">CPU</text>
  <text x="278" y="472" font-family="ui-monospace, SF Mono, Cascadia Mono, Menlo, monospace" font-size="11" fill="currentColor" text-anchor="start">exec</text>
  <rect x="48" y="442" width="210" height="40" fill="none" stroke="var(--tone-ram)" stroke-width="1.25"/>
  <text x="54" y="458" font-family="ui-monospace, SF Mono, Cascadia Mono, Menlo, monospace" font-size="11" fill="var(--tone-ram)" text-anchor="start">pinned banks</text>
  <text x="54" y="472" font-family="ui-monospace, SF Mono, Cascadia Mono, Menlo, monospace" font-size="11" fill="var(--tone-ram)" text-anchor="start">40 GB</text>
  <rect x="48" y="496" width="210" height="34" fill="none" stroke="var(--tone-cache)" stroke-width="1.25" stroke-dasharray="4 3"/>
  <text x="54" y="516" font-family="ui-monospace, SF Mono, Cascadia Mono, Menlo, monospace" font-size="11" fill="var(--tone-cache)" text-anchor="start">page cache</text>
  <rect x="48" y="544" width="210" height="40" fill="none" stroke="var(--tone-disk)" stroke-width="1.25"/>
  <line x1="170" y1="544" x2="170" y2="584" stroke="var(--tone-disk)" stroke-width="1.25"/>
  <text x="54" y="560" font-family="ui-monospace, SF Mono, Cascadia Mono, Menlo, monospace" font-size="11" fill="var(--tone-disk)" text-anchor="start">expert banks</text>
  <text x="54" y="574" font-family="ui-monospace, SF Mono, Cascadia Mono, Menlo, monospace" font-size="11" fill="var(--tone-disk)" text-anchor="start">63.5 GiB</text>
  <text x="176" y="560" font-family="ui-monospace, SF Mono, Cascadia Mono, Menlo, monospace" font-size="11" fill="var(--tone-disk)" text-anchor="start">table</text>
  <text x="176" y="574" font-family="ui-monospace, SF Mono, Cascadia Mono, Menlo, monospace" font-size="11" fill="var(--tone-disk)" text-anchor="start">27 GiB</text>
  <rect x="358" y="324" width="342" height="308" fill="none" stroke="currentColor" stroke-width="1.25"/>
  <circle cx="376" cy="342" r="9" fill="none" stroke="currentColor" stroke-width="1"/>
  <text x="376" y="346" font-family="ui-monospace, SF Mono, Cascadia Mono, Menlo, monospace" font-size="11" fill="currentColor" text-anchor="middle">4</text>
  <text x="392" y="346" font-family="ui-monospace, SF Mono, Cascadia Mono, Menlo, monospace" font-size="11" fill="currentColor" text-anchor="start">Compute and tally</text>
  <rect x="406" y="364" width="210" height="62" fill="none" stroke="var(--tone-gpu)" stroke-width="1.25"/>
  <text x="412" y="378" font-family="ui-monospace, SF Mono, Cascadia Mono, Menlo, monospace" font-size="11" fill="var(--tone-gpu)" text-anchor="start">GPU</text>
  <line x1="406" y1="384" x2="616" y2="384" stroke="var(--tone-gpu)" stroke-width="1.25"/>
  <line x1="486" y1="384" x2="486" y2="426" stroke="var(--tone-hot)" stroke-width="1.25"/>
  <line x1="548" y1="384" x2="548" y2="426" stroke="var(--tone-hot)" stroke-width="1.25"/>
  <text x="412" y="409" font-family="ui-monospace, SF Mono, Cascadia Mono, Menlo, monospace" font-size="11" fill="currentColor" text-anchor="start">slot cache</text>
  <text x="492" y="409" font-family="ui-monospace, SF Mono, Cascadia Mono, Menlo, monospace" font-size="11" fill="var(--tone-hot)" text-anchor="start">hot set</text>
  <text x="556" y="409" font-family="ui-monospace, SF Mono, Cascadia Mono, Menlo, monospace" font-size="11" fill="currentColor" text-anchor="start">KV</text>
  <rect x="630" y="442" width="56" height="40" fill="none" stroke="currentColor" stroke-width="1.25"/>
  <text x="636" y="458" font-family="ui-monospace, SF Mono, Cascadia Mono, Menlo, monospace" font-size="11" fill="currentColor" text-anchor="start">CPU</text>
  <text x="636" y="472" font-family="ui-monospace, SF Mono, Cascadia Mono, Menlo, monospace" font-size="11" fill="currentColor" text-anchor="start">exec</text>
  <rect x="406" y="442" width="210" height="40" fill="none" stroke="var(--tone-ram)" stroke-width="1.25"/>
  <text x="412" y="458" font-family="ui-monospace, SF Mono, Cascadia Mono, Menlo, monospace" font-size="11" fill="var(--tone-ram)" text-anchor="start">pinned banks</text>
  <text x="412" y="472" font-family="ui-monospace, SF Mono, Cascadia Mono, Menlo, monospace" font-size="11" fill="var(--tone-ram)" text-anchor="start">40 GB</text>
  <rect x="406" y="496" width="210" height="34" fill="none" stroke="var(--tone-cache)" stroke-width="1.25" stroke-dasharray="4 3"/>
  <text x="412" y="516" font-family="ui-monospace, SF Mono, Cascadia Mono, Menlo, monospace" font-size="11" fill="var(--tone-cache)" text-anchor="start">page cache</text>
  <rect x="406" y="544" width="210" height="40" fill="none" stroke="var(--tone-disk)" stroke-width="1.25"/>
  <line x1="528" y1="544" x2="528" y2="584" stroke="var(--tone-disk)" stroke-width="1.25"/>
  <text x="412" y="560" font-family="ui-monospace, SF Mono, Cascadia Mono, Menlo, monospace" font-size="11" fill="var(--tone-disk)" text-anchor="start">expert banks</text>
  <text x="412" y="574" font-family="ui-monospace, SF Mono, Cascadia Mono, Menlo, monospace" font-size="11" fill="var(--tone-disk)" text-anchor="start">63.5 GiB</text>
  <text x="534" y="560" font-family="ui-monospace, SF Mono, Cascadia Mono, Menlo, monospace" font-size="11" fill="var(--tone-disk)" text-anchor="start">table</text>
  <text x="534" y="574" font-family="ui-monospace, SF Mono, Cascadia Mono, Menlo, monospace" font-size="11" fill="var(--tone-disk)" text-anchor="start">27 GiB</text>
  <text x="54" y="112" font-family="ui-monospace, SF Mono, Cascadia Mono, Menlo, monospace" font-size="11" fill="currentColor" text-anchor="start">n-gram ids for this token: already known</text>
  <text x="54" y="282" font-family="ui-monospace, SF Mono, Cascadia Mono, Menlo, monospace" font-size="11" fill="currentColor" text-anchor="start">hidden state</text>
  <line x1="136" y1="278" x2="150" y2="278" stroke="currentColor" stroke-width="1"/>
  <line x1="150" y1="278" x2="145.95491502812527" y2="280.93892626146237" stroke="currentColor" stroke-width="1"/>
  <line x1="150" y1="278" x2="145.95491502812527" y2="275.06107373853763" stroke="currentColor" stroke-width="1"/>
  <rect x="152" y="268" width="46" height="20" fill="none" stroke="currentColor" stroke-width="1.25"/>
  <text x="158" y="282" font-family="ui-monospace, SF Mono, Cascadia Mono, Menlo, monospace" font-size="11" fill="currentColor" text-anchor="start">router</text>
  <line x1="210" y1="290" x2="210" y2="282" stroke="currentColor" stroke-width="1"/>
  <line x1="215" y1="290" x2="215" y2="282" stroke="currentColor" stroke-width="1"/>
  <line x1="220" y1="290" x2="220" y2="272" stroke="currentColor" stroke-width="1.25"/>
  <line x1="225" y1="290" x2="225" y2="282" stroke="currentColor" stroke-width="1"/>
  <line x1="230" y1="290" x2="230" y2="282" stroke="currentColor" stroke-width="1"/>
  <line x1="235" y1="290" x2="235" y2="272" stroke="currentColor" stroke-width="1.25"/>
  <line x1="240" y1="290" x2="240" y2="282" stroke="currentColor" stroke-width="1"/>
  <line x1="245" y1="290" x2="245" y2="282" stroke="currentColor" stroke-width="1"/>
  <line x1="250" y1="290" x2="250" y2="282" stroke="currentColor" stroke-width="1"/>
  <line x1="255" y1="290" x2="255" y2="272" stroke="currentColor" stroke-width="1.25"/>
  <line x1="260" y1="290" x2="260" y2="282" stroke="currentColor" stroke-width="1"/>
  <line x1="265" y1="290" x2="265" y2="282" stroke="currentColor" stroke-width="1"/>
  <line x1="270" y1="290" x2="270" y2="282" stroke="currentColor" stroke-width="1"/>
  <line x1="275" y1="290" x2="275" y2="272" stroke="currentColor" stroke-width="1.25"/>
  <line x1="280" y1="290" x2="280" y2="282" stroke="currentColor" stroke-width="1"/>
  <line x1="285" y1="290" x2="285" y2="282" stroke="currentColor" stroke-width="1"/>
  <line x1="290" y1="290" x2="290" y2="272" stroke="currentColor" stroke-width="1.25"/>
  <line x1="295" y1="290" x2="295" y2="282" stroke="currentColor" stroke-width="1"/>
  <line x1="300" y1="290" x2="300" y2="282" stroke="currentColor" stroke-width="1"/>
  <line x1="305" y1="290" x2="305" y2="282" stroke="currentColor" stroke-width="1"/>
  <line x1="310" y1="290" x2="310" y2="272" stroke="currentColor" stroke-width="1.25"/>
  <line x1="315" y1="290" x2="315" y2="282" stroke="currentColor" stroke-width="1"/>
  <line x1="320" y1="290" x2="320" y2="282" stroke="currentColor" stroke-width="1"/>
  <line x1="325" y1="290" x2="325" y2="282" stroke="currentColor" stroke-width="1"/>
  <text x="210" y="304" font-family="ui-monospace, SF Mono, Cascadia Mono, Menlo, monospace" font-size="11" fill="currentColor" text-anchor="start">512 a layer, top-k</text>
  <text x="412" y="274" font-family="ui-monospace, SF Mono, Cascadia Mono, Menlo, monospace" font-size="11" fill="var(--tone-hot)" text-anchor="start">hot</text>
  <rect x="462" y="266" width="8" height="8" fill="none" stroke="currentColor" stroke-width="1"/>
  <rect x="474" y="266" width="8" height="8" fill="none" stroke="currentColor" stroke-width="1"/>
  <rect x="486" y="266" width="8" height="8" fill="none" stroke="currentColor" stroke-width="1"/>
  <rect x="498" y="266" width="8" height="8" fill="none" stroke="currentColor" stroke-width="1"/>
  <rect x="510" y="266" width="8" height="8" fill="none" stroke="currentColor" stroke-width="1"/>
  <rect x="522" y="266" width="8" height="8" fill="none" stroke="currentColor" stroke-width="1"/>
  <text x="538" y="274" font-family="ui-monospace, SF Mono, Cascadia Mono, Menlo, monospace" font-size="11" fill="currentColor" text-anchor="start">stay on A (72%)</text>
  <text x="412" y="288" font-family="ui-monospace, SF Mono, Cascadia Mono, Menlo, monospace" font-size="11" fill="var(--tone-ram)" text-anchor="start">pinned</text>
  <rect x="462" y="280" width="8" height="8" fill="none" stroke="currentColor" stroke-width="1"/>
  <rect x="474" y="280" width="8" height="8" fill="none" stroke="currentColor" stroke-width="1"/>
  <text x="538" y="288" font-family="ui-monospace, SF Mono, Cascadia Mono, Menlo, monospace" font-size="11" fill="currentColor" text-anchor="start">fetched from B</text>
  <text x="412" y="302" font-family="ui-monospace, SF Mono, Cascadia Mono, Menlo, monospace" font-size="11" fill="var(--tone-disk)" text-anchor="start">cold</text>
  <rect x="462" y="294" width="8" height="8" fill="none" stroke="currentColor" stroke-width="1"/>
  <rect x="474" y="294" width="8" height="8" fill="none" stroke="currentColor" stroke-width="1"/>
  <rect x="486" y="294" width="8" height="8" fill="none" stroke="currentColor" stroke-width="1"/>
  <rect x="498" y="294" width="8" height="8" fill="none" stroke="currentColor" stroke-width="1"/>
  <text x="538" y="302" font-family="ui-monospace, SF Mono, Cascadia Mono, Menlo, monospace" font-size="11" fill="currentColor" text-anchor="start">read from D through C</text>
  <line x1="90" y1="442" x2="90" y2="426" stroke="currentColor" stroke-width="1"/>
  <line x1="90" y1="426" x2="92.93892626146237" y2="430.04508497187476" stroke="currentColor" stroke-width="1"/>
  <line x1="90" y1="426" x2="87.06107373853763" y2="430.04508497187476" stroke="currentColor" stroke-width="1"/>
  <text x="96" y="438" font-family="ui-monospace, SF Mono, Cascadia Mono, Menlo, monospace" font-size="11" fill="currentColor" text-anchor="start">PCIe</text>
  <text x="140" y="438" font-family="ui-monospace, SF Mono, Cascadia Mono, Menlo, monospace" font-size="11" fill="currentColor" text-anchor="start">hot: stays</text>
  <line x1="70" y1="544" x2="70" y2="530" stroke="currentColor" stroke-width="1" stroke-dasharray="4 3"/>
  <line x1="70" y1="530" x2="72.93892626146237" y2="534.0450849718748" stroke="currentColor" stroke-width="1"/>
  <line x1="70" y1="530" x2="67.06107373853763" y2="534.0450849718748" stroke="currentColor" stroke-width="1"/>
  <text x="78" y="540" font-family="ui-monospace, SF Mono, Cascadia Mono, Menlo, monospace" font-size="11" fill="currentColor" text-anchor="start">willneed</text>
  <polyline points="258,513 300,513 300,482" fill="none" stroke="currentColor" stroke-width="1"/>
  <line x1="300" y1="482" x2="302.93892626146237" y2="486.04508497187476" stroke="currentColor" stroke-width="1"/>
  <line x1="300" y1="482" x2="297.06107373853763" y2="486.04508497187476" stroke="currentColor" stroke-width="1"/>
  <text x="306" y="506" font-family="ui-monospace, SF Mono, Cascadia Mono, Menlo, monospace" font-size="11" fill="currentColor" text-anchor="start">read</text>
  <polyline points="48,506 38,506 38,420 48,420" fill="none" stroke="currentColor" stroke-width="1"/>
  <line x1="48" y1="420" x2="43.954915028125264" y2="422.93892626146237" stroke="currentColor" stroke-width="1"/>
  <line x1="48" y1="420" x2="43.954915028125264" y2="417.06107373853763" stroke="currentColor" stroke-width="1"/>
  <text x="6" y="464" font-family="ui-monospace, SF Mono, Cascadia Mono, Menlo, monospace" font-size="11" fill="currentColor" text-anchor="start">HMM</text>
  <text x="54" y="606" font-family="ui-monospace, SF Mono, Cascadia Mono, Menlo, monospace" font-size="11" fill="currentColor" text-anchor="start">table rows: the GPU reads the file mapping</text>
  <text x="54" y="620" font-family="ui-monospace, SF Mono, Cascadia Mono, Menlo, monospace" font-size="11" fill="currentColor" text-anchor="start">itself, through the page cache</text>
  <circle cx="658" cy="412" r="9" fill="none" stroke="currentColor" stroke-width="1"/>
  <text x="658" y="416" font-family="ui-monospace, SF Mono, Cascadia Mono, Menlo, monospace" font-size="11" fill="currentColor" text-anchor="middle">+</text>
  <line x1="616" y1="404" x2="649" y2="410" stroke="currentColor" stroke-width="1"/>
  <line x1="649" y1="410" x2="644.4944315002559" y2="412.1679143189053" stroke="currentColor" stroke-width="1"/>
  <line x1="649" y1="410" x2="645.5458937244942" y2="406.3848720855948" stroke="currentColor" stroke-width="1"/>
  <line x1="658" y1="442" x2="658" y2="421" stroke="currentColor" stroke-width="1"/>
  <line x1="658" y1="421" x2="660.9389262614624" y2="425.04508497187476" stroke="currentColor" stroke-width="1"/>
  <line x1="658" y1="421" x2="655.0610737385376" y2="425.04508497187476" stroke="currentColor" stroke-width="1"/>
  <text x="670" y="416" font-family="ui-monospace, SF Mono, Cascadia Mono, Menlo, monospace" font-size="11" fill="currentColor" text-anchor="start">out</text>
  <line x1="412" y1="624" x2="412" y2="598" stroke="currentColor" stroke-width="1.25"/>
  <line x1="420" y1="624" x2="420" y2="602" stroke="currentColor" stroke-width="1.25"/>
  <line x1="428" y1="624" x2="428" y2="606" stroke="currentColor" stroke-width="1.25"/>
  <line x1="436" y1="624" x2="436" y2="609" stroke="currentColor" stroke-width="1.25"/>
  <line x1="444" y1="624" x2="444" y2="612" stroke="currentColor" stroke-width="1.25"/>
  <line x1="452" y1="624" x2="452" y2="614" stroke="currentColor" stroke-width="1.25"/>
  <line x1="460" y1="624" x2="460" y2="616" stroke="currentColor" stroke-width="1.25"/>
  <line x1="468" y1="624" x2="468" y2="617" stroke="currentColor" stroke-width="1.25"/>
  <line x1="476" y1="624" x2="476" y2="618" stroke="currentColor" stroke-width="1.25"/>
  <line x1="484" y1="624" x2="484" y2="619" stroke="currentColor" stroke-width="1.25"/>
  <line x1="492" y1="624" x2="492" y2="620" stroke="currentColor" stroke-width="1.25"/>
  <line x1="500" y1="624" x2="500" y2="621" stroke="currentColor" stroke-width="1.25"/>
  <line x1="408" y1="624" x2="508" y2="624" stroke="currentColor" stroke-width="1"/>
  <text x="518" y="606" font-family="ui-monospace, SF Mono, Cascadia Mono, Menlo, monospace" font-size="11" fill="currentColor" text-anchor="start">per-expert counters</text>
  <text x="518" y="620" font-family="ui-monospace, SF Mono, Cascadia Mono, Menlo, monospace" font-size="11" fill="currentColor" text-anchor="start">half-life 2,000 steps</text>
</svg>
